<?xml version="1.0" encoding="utf-8"?>
<!-- Generator: Adobe Illustrator 27.9.3, SVG Export Plug-In . SVG Version: 9.03 Build 53313)  -->
<svg version="1.1" id="Layer_1" xmlns="http://www.w3.org/2000/svg" xmlns:xlink="http://www.w3.org/1999/xlink" x="0px" y="0px"
	 viewBox="0 0 476 172.1493225" style="enable-background:new 0 0 476 172.1493225;" xml:space="preserve">
<style type="text/css">
	.st0{stroke:#0C4651;stroke-width:0.05;stroke-linecap:round;stroke-linejoin:round;}
	.st1{fill:none;}
</style>
<path d="M346.5440979,40.2205963c-0.0254517-0.0330963-0.0678711-0.0431671-0.1018066-0.0172729l-1.2469788,0.8822021
	c-0.0141296,0.0115204-0.0254517,0.0287781-0.0282898,0.0474854c-0.0028076,0.0201569,0,0.0388641,0.011322,0.0561371
	l4.1396179,5.9667053c0.0141907,0.0187073,0.0339966,0.0302429,0.0566101,0.0302429l1.9058533,0.0661926h0.0028076
	c0.0254517,0,0.0509033-0.0144043,0.065033-0.0388489c0.011322-0.0244751,0.011322-0.0546875-0.0056458-0.0777283
	L346.5440979,40.2205963z"/>
<path d="M416.1099243,40.2263489c-0.0226135-0.0345306-0.0678406-0.0402985-0.1017761-0.0172577l-1.2470093,0.8821869
	c-0.0141296,0.0115204-0.0254517,0.0287933-0.0282593,0.0475006c-0.0028381,0.0201416,0,0.0388489,0.0112915,0.0561218
	l4.139679,5.9681549c0.0141602,0.0187073,0.0339355,0.0302124,0.0565491,0.0302124l1.9058533,0.0662231h0.0028076
	c0.0254517,0,0.0509033-0.0144043,0.0650635-0.0388794c0.0112915-0.0244446,0.0112915-0.0546875-0.0056763-0.0776978
	L416.1099243,40.2263489z"/>
<path d="M276.92453,33.3400269h-1.5778198c-0.0395813,0-0.0735168,0.0330963-0.0735168,0.0733948v13.4949036
	c0,0.0402985,0.0339355,0.0733948,0.0735168,0.0733948h1.5778198c0.0396118,0,0.0735168-0.0330963,0.0735168-0.0733948V33.4134216
	C276.9980469,33.3731232,276.9641418,33.3400269,276.92453,33.3400269z"/>
<path class="st0" d="M290.1381531,6.9708405l2.8276367-0.6794586V5.0722351h-33.6603394v1.2191467l2.8276672,0.6794586
	c6.0455017,1.4231415,7.0973816,3.1860962,7.0973816,8.2038727v26.513092c0,5.0161591-1.0518799,6.7807312-7.0973816,8.2038879
	l-2.8276672,0.678009v1.2205811h33.6603394v-1.2205811l-2.8276367-0.678009
	c-6.0483398-1.4231567-7.1002197-3.1877289-7.1002197-8.2038879v-26.513092
	C283.0379333,10.1569366,284.0898132,8.3939819,290.1381531,6.9708405z M285.8005371,50.0958557v0.0671082h-19.6578369v-0.0671082
	c3.613739-1.4932861,4.7985229-3.8657227,4.7985229-8.4080505v-26.513092c0-4.5437622-1.1169128-6.8478394-4.6005859-8.4080505
	V6.6995544h19.4598999v0.0671082c-3.4214478,1.5602112-4.4733582,3.9328308-4.4733582,8.4080505v26.513092
	C281.327179,46.1615906,282.4469299,48.5354614,285.8005371,50.0958557z"/>
<path d="M276.92453,9.8804474h-1.5778198c-0.0395813,0-0.0735168,0.0330963-0.0735168,0.0733948v13.019989
	c0,0.0402985,0.0339355,0.0733948,0.0735168,0.0733948h1.5778198c0.0396118,0,0.0735168-0.0330963,0.0735168-0.0733948V9.9538422
	C276.9980469,9.9135437,276.9641418,9.8804474,276.92453,9.8804474z"/>
<path d="M276.1865234,25.4966583c-0.0282898-0.0287933-0.0735168-0.0287933-0.1018066,0l-2.5646667,2.6451569
	c-0.0282898,0.0287781-0.0282898,0.0748291,0,0.1036224l2.5646667,2.6451569
	c0.0141602,0.014389,0.0311279,0.0215759,0.0509033,0.0215759c0.0198059,0,0.0367737-0.0071869,0.0509033-0.0215759
	l2.5618591-2.6451569c0.0282593-0.0287933,0.0282593-0.0748444,0-0.1036224L276.1865234,25.4966583z"/>
<path d="M345.1839905,34.9029388l-3.613739-0.6792755c-0.0226135-0.0086365-0.0423889-0.0014496-0.0565491,0.0115051
	c-0.0169678,0.0129547-0.0254517,0.0302277-0.0282593,0.0503693l-0.5259399,3.7288361
	c-0.0056763,0.0388641,0.0197754,0.0748444,0.0565491,0.0820312l3.5487061,0.6792908
	c0.0056458,0.0014343,0.0084839,0.0014343,0.0141296,0.0014343c0.0141296,0,0.0282593-0.0043182,0.0424194-0.0129547
	c0.0141296-0.0115051,0.0254517-0.0287781,0.0282593-0.0489349l0.5909729-3.7288361
	C345.2462158,34.9475555,345.2207642,34.910141,345.1839905,34.9029388z"/>
<path d="M337.0120239,26.1154938c-0.0112305-0.0158386-0.0281982-0.0259094-0.0480042-0.0302277
	c-0.0169678,0.0028839-0.0395813,0.0028839-0.0537109,0.014389l-1.2498474,0.9498444
	c-0.0310974,0.0244598-0.0395813,0.0690765-0.0169373,0.1021729l3.8144836,5.4241638
	c0.0141296,0.0201416,0.0367737,0.0302124,0.0593872,0.0302124c0.0141296,0,0.0281982-0.004303,0.0424194-0.0129395
	l1.2469788-0.8807678c0.0141296-0.0115051,0.0254517-0.0287781,0.0282898-0.0474854
	c0.0028076-0.0201569,0-0.0388641-0.011322-0.0561371L337.0120239,26.1154938z"/>
<path d="M314.5350952,33.3400269c-0.0395813,0-0.0735168,0.0330963-0.0735168,0.0733948v13.4949036
	c0,0.0402985,0.0339355,0.0733948,0.0735168,0.0733948h1.5778503c0.0395813,0,0.0735168-0.0330963,0.0735168-0.0733948V33.4134216
	c0-0.0402985-0.0339355-0.0733948-0.0735168-0.0733948H314.5350952z"/>
<path d="M316.1129456,23.047226c0.0395813,0,0.0735168-0.0330963,0.0735168-0.0733948V9.9538422
	c0-0.0402985-0.0339355-0.0733948-0.0735168-0.0733948h-1.5778503c-0.0395813,0-0.0735168,0.0330963-0.0735168,0.0733948v13.019989
	c0,0.0402985,0.0339355,0.0733948,0.0735168,0.0733948H316.1129456z"/>
<path d="M365.1726685,50.4975586l-1.1819763-0.2705383c-2.756958-0.6461792-4.7589417-2.3602295-7.6487732-6.5481415
	l-16.2646484-23.6725769l7.4367065-5.450058c3.9728394-2.934433,8.2737122-5.8688507,12.8007812-7.4490509l2.1687927-0.7469177
	c0.0311279-0.0100708,0.0509033-0.0374146,0.0509033-0.0690765V5.0722351c0-0.0402832-0.0339355-0.073349-0.0735168-0.073349
	H339.121521c-0.0395813,0-0.0735168,0.0330658-0.0735168,0.073349v1.2189636c0,0.0359802,0.0254517,0.0662079,0.0593872,0.0719604
	l1.4477539,0.2720032c3.6307068,0.6620026,5.3951416,2.124176,5.3951416,4.4714355
	c0,1.53125-1.0632019,3.0639496-3.2546082,4.6873169l-20.3958435,15.03479V15.1750793
	c0-4.9377289,0.9698792-6.7035675,7.0436707-8.1326447l2.8276367-0.6792755
	c0.0311279-0.0086365,0.0565796-0.0374146,0.0565796-0.0719604V5.0722351c0-0.0402832-0.0339355-0.073349-0.0735168-0.073349
	h-33.6603699c-0.0395813,0-0.0735168,0.0330658-0.0735168,0.073349v1.2189636c0,0.0345459,0.0254517,0.063324,0.0565796,0.0719604
	l2.8247986,0.6792755c6.0766296,1.4290771,7.0465088,3.1949158,7.0465088,8.1326447v26.513443
	c0,4.9362946-0.9698792,6.7021332-7.0465088,8.1312103l-2.8247986,0.6778259
	c-0.0311279,0.0086365-0.0565796,0.0374146-0.0565796,0.0719604v1.2203979c0,0.0403137,0.0339355,0.0733948,0.0735168,0.0733948
	h33.6603699c0.0395813,0,0.0735168-0.0330811,0.0735168-0.0733948V50.569519c0-0.0345459-0.0254517-0.063324-0.0565796-0.0719604
	l-2.8276367-0.6778259c-6.0737915-1.4290771-7.0436707-3.1949158-7.0436707-8.1312103v-8.575882l6.9447021-5.0874023
	l15.9338074,23.806427c0.0141296,0.0201416,0.0367737,0.0316467,0.0593872,0.0316467h19.9179688
	c0.0395813,0,0.0735168-0.0330811,0.0735168-0.0733948V50.569519
	C365.2292175,50.5349731,365.2037659,50.5047607,365.1726685,50.4975586z M356.8763428,6.7733154
	c-3.2574768,1.495285-6.3085022,3.3431396-9.3171082,5.6486664l0.0197754-0.1770172
	c0.0509033-0.4015198,0.0961609-0.7483521,0.0961609-1.1383667c0-1.8305969-0.7719727-3.2870178-2.296051-4.3332825H356.8763428z
	 M346.1312561,50.0888367l-15.5209656-23.0983429l8.0333557-5.9494476l16.2618103,23.6725769
	c1.8775635,2.7530823,3.3479309,4.3217773,5.0360413,5.3752136H346.1312561z M305.447052,50.0888367
	c3.5939331-1.2606812,4.7561035-3.3416901,4.7561035-8.4003143v-26.513443c0-4.6815643-1.3035583-6.9813232-4.7872314-8.4017639
	h19.8133545c-3.5260925,1.4333954-4.7843933,3.6583252-4.7843933,8.4017639v26.513443
	c0,4.7549591,1.2667847,7.0561676,4.6486511,8.4003143H305.447052z"/>
<path d="M315.2731323,25.4966583l-2.5646973,2.6451569c-0.0282593,0.0287781-0.0282593,0.0748291,0,0.1036224l2.5646973,2.6451569
	c0.0141296,0.014389,0.0310974,0.0215759,0.0509033,0.0215759c0.0197754,0,0.0367432-0.0071869,0.0508728-0.0215759
	l2.5646973-2.6451569c0.0282593-0.0287933,0.0282593-0.0748444,0-0.1036224l-2.5646973-2.6451569
	C315.3466492,25.467865,315.3013916,25.467865,315.2731323,25.4966583z"/>
<path d="M414.7498474,34.9072571l-3.613739-0.6778412c-0.022644-0.0086365-0.0424194-0.0014343-0.0565491,0.0115204
	c-0.0169678,0.0129395-0.0254517,0.0302124-0.0282898,0.0503693l-0.5259399,3.7288361
	c-0.0056458,0.0388489,0.0197754,0.0748291,0.0565491,0.0820312l3.5487061,0.6792755
	c0.0056458,0.0014343,0.0084839,0.0014343,0.0141296,0.0014343c0.0141296,0,0.0282898-0.0043182,0.0424194-0.0129547
	c0.0141296-0.0115051,0.0254517-0.0287781,0.0282898-0.0489197l0.5909729-3.7302856
	C414.8120422,34.9518738,414.7865906,34.9144592,414.7498474,34.9072571z"/>
<path d="M406.5779419,26.119812c-0.011322-0.0158386-0.0282898-0.0259094-0.0480957-0.0302277
	c-0.0141296-0.0014343-0.0395813,0.0014343-0.0537109,0.014389l-1.2498169,0.9498444
	c-0.0310974,0.0244598-0.0395813,0.0690765-0.0169678,0.1021729l3.8144836,5.4241638
	c0.0140991,0.0201416,0.0367737,0.0302124,0.0593872,0.0302124c0.0141296,0,0.0282898-0.0043182,0.0424194-0.0129395
	l1.2469788-0.8807678c0.0141602-0.0115051,0.0254517-0.0287781,0.0282898-0.0474854
	c0.0028381-0.0201569,0-0.0388641-0.011322-0.0561371L406.5779419,26.119812z"/>
<path d="M434.7384949,50.5047607l-1.1819763-0.2705688c-2.756958-0.6461792-4.7589111-2.360199-7.6487732-6.5495605
	l-16.2646484-23.6754608l7.4367065-5.4514923c3.9728699-2.934433,8.2737122-5.8688507,12.8007812-7.4490356l2.1688232-0.7469177
	c0.0310974-0.0115204,0.0508728-0.0388641,0.0508728-0.0705261V5.0722351c0-0.0402832-0.0339355-0.073349-0.0735168-0.073349
	h-23.3394165c-0.0395813,0-0.0735168,0.0330658-0.0735168,0.073349v1.2189636c0,0.0359802,0.0254517,0.0662079,0.0593872,0.0719604
	l1.4477539,0.2720032c3.6307068,0.6620026,5.3951416,2.124176,5.3951416,4.4714355
	c0,1.53125-1.0631714,3.0653839-3.2546082,4.6887512l-20.3958435,15.037674V15.1765137
	c0-4.9377289,0.9698792-6.7035675,7.0436707-8.134079l2.8276672-0.6792755
	c0.0310974-0.0086365,0.0565491-0.0374146,0.0565491-0.0719604V5.0722351c0-0.0402832-0.0339355-0.073349-0.0735168-0.073349
	h-33.6603394c-0.0395813,0-0.0735168,0.0330658-0.0735168,0.073349v1.2189636c0,0.0345459,0.0254517,0.063324,0.0565491,0.0719604
	l2.8248291,0.6792755c6.0765991,1.4305115,7.0464783,3.1963501,7.0464783,8.134079v26.5177765
	c0,4.9377136-0.9698792,6.7035675-7.0464783,8.1326447l-2.8248291,0.6778259
	c-0.0310974,0.0086365-0.0565491,0.0374146-0.0565491,0.0719604v1.2218323c0,0.0403137,0.0339355,0.0733948,0.0735168,0.0733948
	h33.6603394c0.0395813,0,0.0735168-0.0330811,0.0735168-0.0733948v-1.2218323c0-0.0345459-0.0254517-0.063324-0.0565491-0.0719604
	l-2.8276672-0.6778259c-6.0737915-1.4290771-7.0436707-3.194931-7.0436707-8.1326447v-8.5773315l6.9447021-5.0874023
	l15.9338074,23.8107452c0.0141602,0.0201416,0.0367737,0.0316467,0.0593872,0.0316467h19.9179688
	c0.0395813,0,0.0735168-0.0330811,0.0735168-0.0733948v-1.2218323
	C434.7950439,50.5421753,434.7695923,50.5119629,434.7384949,50.5047607z M426.4450073,6.7733154
	c-3.2546387,1.4909668-6.3056641,3.3417053-9.3199463,5.6501007l0.0198059-0.1770172
	c0.0508728-0.4015198,0.0961304-0.7483521,0.0961304-1.139801c0-1.8291626-0.7747803-3.2870178-2.296051-4.3332825H426.4450073z
	 M415.6970825,50.0974731l-15.5209656-23.1040955l8.0333557-5.9494476l16.2618103,23.6754456
	c1.8775635,2.7545319,3.3479614,4.3246613,5.0388794,5.3780975H415.6970825z M375.0100403,50.0974731
	c3.5967712-1.2606812,4.7589417-3.3416901,4.7589417-8.403183V15.1765137c0-4.684433-1.3035583-6.9841919-4.7900391-8.4031982
	h19.8190002c-3.5289001,1.4319611-4.7872009,3.6568756-4.7872009,8.4031982v26.5177765
	c0,4.7578278,1.2667847,7.0590363,4.6514587,8.403183H375.0100403z"/>
<path d="M384.8389587,25.499527l-2.5646667,2.6466064c-0.0282898,0.0287781-0.0282898,0.0748291,0,0.1036224l2.5646667,2.6451569
	c0.0141296,0.014389,0.0310974,0.0215759,0.0509033,0.0215759c0.0197754,0,0.0367432-0.0071869,0.0509033-0.0215759
	l2.5646667-2.6451569c0.0282898-0.0287933,0.0282898-0.0748444,0-0.1036224l-2.5646667-2.6466064
	C384.9124756,25.4707489,384.8672485,25.4707489,384.8389587,25.499527z"/>
<path d="M385.678772,23.0500946c0.0395813,0,0.0735168-0.0330963,0.0735168-0.0733948V9.9552765
	c0-0.0402985-0.0339355-0.0733948-0.0735168-0.0733948h-1.5778198c-0.0396118,0-0.0735168,0.0330963-0.0735168,0.0733948v13.0214233
	c0,0.0402985,0.033905,0.0733948,0.0735168,0.0733948H385.678772z"/>
<path d="M384.1009521,33.3457794c-0.0396118,0-0.0735168,0.0330963-0.0735168,0.0733948v13.4963531
	c0,0.0402832,0.033905,0.0733948,0.0735168,0.0733948h1.5778198c0.0395813,0,0.0735168-0.0331116,0.0735168-0.0733948V33.4191742
	c0-0.0402985-0.0339355-0.0733948-0.0735168-0.0733948H384.1009521z"/>
<path d="M455.2446289,23.0500946c0.0395508,0,0.0734863-0.0330963,0.0734863-0.0733948V9.9552765
	c0-0.0402985-0.0339355-0.0733948-0.0734863-0.0733948h-1.5778503c-0.0395813,0-0.0735168,0.0330963-0.0735168,0.0733948v13.0214233
	c0,0.0402985,0.0339355,0.0733948,0.0735168,0.0733948H455.2446289z"/>
<path d="M453.6667786,33.3457794c-0.0395813,0-0.0735168,0.0330963-0.0735168,0.0733948v13.4963531
	c0,0.0402832,0.0339355,0.0733948,0.0735168,0.0733948h1.5778503c0.0395508,0,0.0734863-0.0331116,0.0734863-0.0733948V33.4191742
	c0-0.0402985-0.0339355-0.0733948-0.0734863-0.0733948H453.6667786z"/>
<path d="M468.4751587,7.0424347l2.8276367-0.6792755c0.0311279-0.0086365,0.0565796-0.0374146,0.0565796-0.0719604V5.0722351
	c0-0.0402832-0.0339355-0.073349-0.0734863-0.073349h-33.6603699c-0.0395813,0-0.0735168,0.0330658-0.0735168,0.073349v1.2189636
	c0,0.0345459,0.0254517,0.063324,0.0565491,0.0719604l2.8248291,0.6792755
	c6.0765991,1.4305115,7.0465088,3.1963501,7.0465088,8.134079v26.5177765c0,4.9377136-0.9699097,6.7035675-7.0465088,8.1326447
	l-2.8248291,0.6778259c-0.0310974,0.0086365-0.0565491,0.0374146-0.0565491,0.0719604v1.2218323
	c0,0.0403137,0.0339355,0.0733948,0.0735168,0.0733948h33.6603699c0.0395508,0,0.0734863-0.0330811,0.0734863-0.0733948v-1.2218323
	c0-0.0345459-0.0254517-0.063324-0.0565796-0.0719604l-2.8276367-0.6778259
	c-6.0737915-1.4290771-7.0436401-3.194931-7.0436401-8.1326447V15.1765137
	C461.4315186,10.2387848,462.4013672,8.4729462,468.4751587,7.0424347z M444.6663818,50.0974731
	c3.3988342-1.4621582,4.6684265-3.7619324,4.6684265-8.403183V15.1765137c0-4.6484528-1.1791077-6.8704987-4.4874573-8.4031982
	h19.0838013c-3.1697998,1.5039062-4.3546143,3.8007965-4.3546143,8.4031982v26.5177765
	c0,4.575058,1.1848145,6.871933,4.3574219,8.403183H444.6663818z"/>
<path d="M454.4047852,25.499527l-2.5646667,2.6466064c-0.0282898,0.0287781-0.0282898,0.0748291,0,0.1036224l2.5646667,2.6451569
	c0.0141602,0.014389,0.0310974,0.0215759,0.0509033,0.0215759s0.0367737-0.0071869,0.0509033-0.0215759l2.5646973-2.6451569
	c0.0282593-0.0287933,0.0282593-0.0748444,0-0.1036224l-2.5646973-2.6466064
	C454.478302,25.4707489,454.433075,25.4707489,454.4047852,25.499527z"/>
<path d="M230.1721802,27.5936737L241.21698,37.6464996v2.2805176l-12.1617126-11.1944275L230.1721802,27.5936737z
	 M224.1238403,22.6322021h3.6816101v3.7536621h-3.6816101V22.6322021z M221.7571106,21.4934845L210.0534668,9.8982544h2.2366638
	l10.5838928,10.4564972L221.7571106,21.4934845z"/>
<path d="M241.2650452,37.5912628l-11.0447998-10.0524597c-0.0310974-0.0302124-0.0735168-0.0230255-0.0989685,0.0028839
	l-1.1169128,1.139801c-0.0141296,0.0144043-0.0226135,0.0331116-0.0226135,0.0532532
	c0.0028076,0.0201569,0.0112915,0.0402985,0.0254517,0.0532532l12.1617126,11.1937103
	c0.0141296,0.0129395,0.0310974,0.0187073,0.0480652,0.0187073c0.011322,0,0.0198059-0.0014038,0.0282898-0.0057678
	c0.0282593-0.0115051,0.0452271-0.0388489,0.0452271-0.067627v-2.2810516
	C241.2904968,37.6243744,241.2791748,37.6056671,241.2650452,37.5912628z"/>
<path d="M222.9249268,20.3013306L212.3410339,9.8444672c-0.0141602-0.0129547-0.0311279-0.0201569-0.0509033-0.0201569h-2.2366638
	c-0.0282898,0-0.0565491,0.0172729-0.0678711,0.046051c-0.011322,0.0273438-0.0028381,0.0590057,0.0169678,0.0805969
	l11.7036438,11.5952301c0.0141296,0.0129547,0.0339355,0.0201569,0.0509033,0.0201569
	c0.0197754,0,0.0367432-0.0072021,0.0508728-0.0215912l1.1169434-1.1383667
	c0.0141296-0.014389,0.0226135-0.0331116,0.0226135-0.0518188
	C222.9475403,20.3344269,222.9390564,20.3157196,222.9249268,20.3013306z"/>
<path d="M227.8054504,22.5593567h-3.6816101c-0.0395813,0-0.0735168,0.0330963-0.0735168,0.0733948v3.7532959
	c0,0.0402985,0.0339355,0.0733948,0.0735168,0.0733948h3.6816101c0.0395813,0,0.0735168-0.0330963,0.0735168-0.0733948v-3.7532959
	C227.8789673,22.592453,227.8450317,22.5593567,227.8054504,22.5593567z"/>
<path class="st0" d="M232.210907,5.0722351v1.2051086l4.139679,1.0723572
	c5.0614929,1.3405609,7.9570312,4.6934204,7.9570312,11.3286285v13.6737213L215.9717407,5.0722351H194.275177v1.2051086
	l2.431778,0.6717224c3.5515289,1.004715,5.8532257,3.6858521,8.3500519,6.2329712l0.658844,0.6702728v23.9944153
	c0,6.8167114-2.7626343,9.7083282-7.431076,11.6360626l-2.6947479,1.1014709v1.2392883h24.0632935V50.584259l-4.1424866-1.1014709
	c-5.0614929-1.3769226-8.0870972-4.8193512-8.0870972-11.6360626V15.4609222l37.4748535,36.329361h1.0518799V18.6783295
	c0-6.6352081,2.7597961-9.4517975,7.4282227-11.3286285l2.6947632-1.0723572V5.0722351H232.210907z M212.9461365,50.1030579
	v0.0681763h-12.5575867v-0.0681763c3.2885437-1.6523132,5.194397-3.8553009,6.1162109-7.5049896h0.1300659
	C207.6867065,46.3839417,209.6604004,48.7261658,212.9461365,50.1030579z M244.2397461,48.841156l-38.0658264-36.9996948
	c-1.7729492-1.7428131-3.613739-3.6872864-6.6393127-5.094223v-0.066391l15.7782898,0.066391l28.9268494,27.9500885V48.841156z
	 M251.1448669,6.7472382c-3.1556702,1.6085968-5.129364,3.8198547-6.051178,7.3052979h-0.065033
	c-0.9189758-3.6858368-2.8927002-5.9647369-6.1133728-7.3052979v-0.066391h12.2295837V6.7472382z"/>
<path d="M468.2625122,63.1456604c-0.0090332,0.0079651-0.0159302,0.0129089-0.0249634,0.0206909h1.1247559v-0.0206909H468.2625122z"
	/>
<polygon points="301.5474548,105.1026001 301.5672302,105.1383362 303.5720215,105.1383362 297.1397095,94.1640625 
	297.1030273,94.1011658 295.6657715,94.9605103 "/>
<path d="M309.6795654,103.7719727l-23.6989441-40.6027832l-0.0197449-0.0358276h-1.0052185l-18.4017639,34.474823
	c-3.0043945,5.6134644-5.4440308,9.664856-9.5383301,10.653717l-1.171814,0.2751465v1.3127441h19.709137v-1.3113098
	l-1.9596252-0.4714966c-3.775238-0.8956909-5.8534546-3.1542664-5.8534546-6.3586731
	c0-1.4101868,0.536499-3.4194031,1.3045349-4.8854675l0.1129456-0.2221375h20.6578674l2.9337769,5.0158691
	c0.7539368,1.2998352,1.1040649,2.3087463,1.1040649,3.1757812c0,0.1834106-0.0250549,0.3561096-0.061615,0.5241394
	c-0.0098572,0.0440674-0.0213318,0.0877991-0.0336914,0.1307678c-0.0974121,0.3444824-0.2700195,0.6588745-0.5366821,0.9404907
	c-0.0022888,0.0023193-0.0047607,0.0048218-0.0070496,0.0073547c-0.7163391,0.7505798-2.0517273,1.2883606-4.0934143,1.671875
	l-2.4283447,0.4571838l-0.0592957,0.0100098v1.3156128h30.475708v-1.3141785l-1.0447388-0.2063599
	C313.8331909,107.8821106,311.5177917,107.020813,309.6795654,103.7719727z M288.8099365,94.8795471h-18.7236633
	l8.8747559-16.8318481L288.8099365,94.8795471z M295.6403503,104.7923584c0-1.14505-0.4320068-2.4664001-1.3214722-4.0385132
	l-14.4260559-24.4960938l5.5682678-10.4745789l22.6513672,38.851532c0.7736816,1.215271,1.7619629,2.5738525,3.2528381,3.4953613
	H293.689209C295.0022278,107.3131714,295.6403503,106.2197266,295.6403503,104.7923584z M260.8472595,108.1300659
	c1.9370422-1.3757935,3.4844055-3.2646179,5.3056641-6.4647522c0.0395203,2.861908,1.171814,4.9786072,3.4646301,6.4647522
	H260.8472595z"/>
<polygon points="284.8652954,73.0262451 284.800354,72.9132996 283.8826599,74.6648865 283.8657227,74.7006226 
	289.925293,85.2073364 289.9619751,85.2702637 291.399231,84.4108887 "/>
<polygon points="295.8521423,88.3902283 292.2350464,87.3707275 291.2297974,90.9740295 291.2100525,91.046936 
	294.8299866,91.9835205 294.8977356,92.0006714 295.8352051,88.4602966 "/>
<path d="M322.0923767,64.4804993l2.880127,0.6907349c6.0623779,1.42453,7.0309143,3.1843872,7.0309143,8.1056519v26.4293518
	c0,4.9227295-0.9685364,6.6825867-7.0309143,8.1070862l-2.8236694,0.6750183l-0.0564575,0.0128784v1.3485718h33.7596436v-1.3485718
	l-2.8801575-0.6878967c-5.3649292-1.2597046-7.0337219-2.5423279-7.0337219-8.1070862V73.276886
	c0-4.9212646,0.9685364-6.6811218,7.0337219-8.1056519l2.8236694-0.6778564l0.056488-0.0128784v-1.3471375h-33.7596436V64.4804993z
	 M344.0830078,73.276886v26.4293518c0,4.5572815,1.1831055,6.8473816,4.3540649,8.3750916h-19.2375488
	c3.3912048-1.4588928,4.6590271-3.7504578,4.6590271-8.3750916V73.276886c0-4.6332092-1.1774597-6.8473816-4.4783325-8.375061
	h19.0568542C345.2661133,66.3994141,344.0830078,68.6895142,344.0830078,73.276886z"/>
<polygon points="336.3094788,85.9837646 338.9721985,88.6805115 341.6320801,85.9837646 338.9721985,83.2870178 "/>
<rect x="338.1109619" y="91.0297852" width="1.7224426" height="13.3778992"/>
<rect x="338.1109619" y="68.0259705" width="1.7224426" height="12.9117432"/>
<rect x="379.8022461" y="68.0259705" width="1.7224426" height="12.9117432"/>
<path d="M412.8277283,96.1053162v0.0014343c-2.2221985,7.3034058-8.10672,11.8404541-15.3578491,11.8404541h-9.8404541V73.2897034
	c0-5.0871887,1.01651-6.9710388,7.0309143-8.1028137l3.5380249-0.6890869v-1.3480835h-34.4147034v1.3452148l2.8772888,0.6919556
	c6.0680542,1.4240112,7.0365601,3.1832581,7.0365601,8.1028137v26.4200439c0,4.92099-0.9685059,6.6802368-7.0365601,8.104248
	l-2.8208313,0.6747437l-0.0564575,0.0129089v1.348053h51.9439697V91.0553894H414.41745L412.8277283,96.1053162z
	 M375.5498352,99.7097473V73.2897034c0-4.9138489-1.1972351-6.9825134-4.8990479-8.3721313h19.5227661
	c-3.2810974,1.3967896-4.3964539,3.5385132-4.3964539,8.3721313v34.7262878h-14.8721924
	C374.4147339,106.669342,375.5498352,104.6164246,375.5498352,99.7097473z M404.7633667,108.0818787
	c4.2750244-1.868103,7.3838806-5.3120728,9.2418518-10.2388v10.2388H404.7633667z"/>
<rect x="379.8022461" y="91.0297546" width="1.7224426" height="13.3778687"/>
<polygon points="383.3261719,85.9837341 380.6634827,83.2869873 378.0007629,85.9837341 380.6634827,88.680481 "/>
<polygon points="449.0975952,83.2613525 446.0198059,85.341095 445.9577026,85.3820801 448.143219,88.5250244 
	451.1560364,86.3788452 451.2125244,86.3364258 449.137146,83.3207397 "/>
<path d="M465.8108521,98.219635v0.7295227h0.7905884l0.0112915-0.0565491
	c0.1779175-0.8285217,0.2654419-1.7149658,0.2654419-2.7102966c0-5.205719-3.7442017-8.6639404-10.8259277-9.9985962
	l-2.5017395-0.4750366l-0.2851868,1.7206421l2.4989624,0.4736328
	C462.7443237,89.1499329,465.9378662,92.4271851,465.8108521,98.219635z"/>
<path d="M430.2440491,73.4296265l-0.0056458-0.0678711h-0.7849731l-0.0084839,0.0621948
	c-0.0649414,0.4552612-0.1326904,0.9260559-0.1326904,1.3926392c0.0621033,5.2339783,4.4613647,9.0456543,12.071106,10.4566345
	l2.1092834,0.4085999l0.2851868-1.7206116l-2.1036072-0.407196
	C433.9627991,82.0963745,430.5433655,79.0693665,430.2440491,73.4296265z"/>
<path d="M457.2353516,80.650238l-14.3780212-2.5825195c-7.3951721-1.3606567-8.4116821-3.7489319-8.4116821-6.1273499
	c0-2.1331177,1.1746521-7.0968628,12.0739441-7.0968628c4.8905945,0,9.5157471,1.2586365,13.0227051,3.5419617
	c0.3734131,0.2405396,0.7285156,0.4996338,1.0783081,0.7654114c0.1514282,0.1157532,0.2998047,0.2350464,0.4462891,0.3552246
	c0.6768188,0.5520935,1.3145752,1.1550903,1.913208,1.8277283c0.1011353,0.1138306,0.197998,0.2330933,0.2966919,0.349762
	c1.6740723,1.9828796,3.0775757,4.5047913,4.3806763,7.8370056l0.0197754,0.0452271h1.2367554V63.1704102h-1.1231079
	c-2.956543,2.5773926-4.862854,3.7892151-5.9755249,3.7892151c-0.2993164,0-0.9035645-0.2749634-1.7450562-0.656189
	c-2.4283447-1.1027832-6.946167-3.153717-13.6184692-3.153717c-5.3430786,0-9.9634399,1.0048828-13.6089783,2.8186646
	c-0.0201111,0.0098877-0.0400391,0.0199585-0.0601807,0.0300293c-0.5077209,0.2548523-1.0588684,0.4732666-1.5249329,0.7613525
	c-4.108429,2.539917-6.2798157,6.2507019-6.2798157,10.7325134c0,3.7149963,1.318634,6.8317871,3.9135742,9.2624817
	c2.5892944,2.4252625,6.3955994,4.1119385,11.3115845,5.0134277l14.3780518,2.5823669
	c4.8849182,0.8802795,7.358429,3.0941467,7.358429,6.5809937c0,4.9906311-6.9207764,7.2244568-13.7794189,7.2244568
	c-4.7211609,0-9.4281921-1.3139648-13.6184998-3.7999878c-4.1705322-2.50177-6.4718323-7.2939453-8.1744995-11.6524048
	l-0.0197449-0.0454102h-1.2367554v17.1277771h0.0003357v0.0638123h0.9582825l0.0185242-0.0169678
	c0.0192566-0.0180359,0.0335388-0.0289917,0.0527649-0.0468445h-0.0105896l0.022583-0.0199585
	c2.7897949-2.6731873,4.7155151-3.9189453,6.0539246-3.9189453c0.279541,0,0.9515686,0.2862854,1.8805542,0.6802063
	c2.7333069,1.1609497,7.8215332,3.3225098,14.2707825,3.3225098c3.918335,0,7.5987854-0.6554871,10.8858948-1.7729492
	c0.0524292-0.0176697,0.1049805-0.0351562,0.1570435-0.0531921c1.1871948-0.411438,2.3034058-0.8887634,3.359436-1.434845
	c0.1464844-0.07547,0.2913818-0.1516418,0.4348755-0.2295837c0.4837036-0.2634888,1.0161743-0.4828186,1.4665527-0.7744141
	c4.3483887-2.8163452,6.7456665-6.7383118,6.7456665-11.0456848
	C471.4072876,87.0864868,466.5054321,82.2844238,457.2353516,80.650238z M467.3214722,65.3934631v9.8990784
	c-1.4146729-3.2359009-2.9761353-5.3336487-5.1898804-6.9722595
	C463.6959229,68.1728821,465.2150269,67.3153992,467.3214722,65.3934631z M426.7003479,107.4770203V97.3399048
	c1.4231262,3.6057739,3.3545227,5.512146,5.0741272,6.894165
	C430.3005371,104.5033875,428.8604431,105.4232788,426.7003479,107.4770203z M461.2590942,105.9009705
	c1.6376953-1.7123108,2.4678955-3.536499,2.4678955-5.4216614c0-2.3259277-1.1520996-6.4334412-8.8578491-7.8197021
	l-14.3752136-2.5823364c-4.5037231-0.8292236-7.951416-2.3317566-10.2470398-4.4691162
	c-2.267395-2.1090698-3.4138184-4.8403931-3.4138184-8.1158752c0-5.0176697,3.0862732-9.0387573,8.4794312-11.0527649
	c-1.8297119,1.5463867-2.7191772,3.3477783-2.7191772,5.5008545c0,4.145874,2.9846191,6.4844971,9.973175,7.8196716
	l14.3780212,2.58255c4.2128906,0.7326965,7.4093018,2.1387634,9.4987793,4.1769714
	c2.0640869,2.015564,3.1116943,4.7142029,3.1116943,8.0195618
	C469.5549927,99.0675964,466.5336914,103.2021484,461.2590942,105.9009705z"/>
<path d="M241.1590576,95.5940552l-11.0292053-10.0018311c-0.0310669-0.0300903-0.0734253-0.0229187-0.0988159,0.0028381
	l-1.1153564,1.1340942c-0.0141296,0.0143127-0.022583,0.0329285-0.022583,0.0529785
	c0.0028076,0.02005,0.0112915,0.0400696,0.0254211,0.0529785l12.1445312,11.1373291
	c0.0141296,0.0128784,0.0310669,0.0186157,0.0480042,0.0186157c0.0112915,0,0.0197754-0.0014343,0.0282288-0.0057373
	c0.0282288-0.0114441,0.0451965-0.0386353,0.0451965-0.0672913V95.648468
	C241.1844788,95.6269836,241.1731567,95.6083679,241.1590576,95.5940552z"/>
<path d="M222.8448181,78.3911743L212.2758789,67.986969c-0.0141296-0.0129089-0.0310669-0.02005-0.0508423-0.02005h-2.23349
	c-0.0282593,0-0.056488,0.0171814-0.0677795,0.0458069c-0.0112915,0.0272217-0.0028076,0.0587158,0.0169373,0.0802002
	l11.6871338,11.5368347c0.0140991,0.0128784,0.0338745,0.02005,0.0508118,0.02005
	c0.0197754,0,0.0367126-0.0071716,0.0508118-0.0214844l1.1153564-1.1326294
	c0.0141296-0.0143127,0.022583-0.0329285,0.022583-0.0515442C222.8674011,78.4241028,222.8589478,78.4054871,222.8448181,78.3911743
	z"/>
<path d="M227.7184448,80.6378174h-3.6763916c-0.0395203,0-0.0734253,0.0329285-0.0734253,0.0730286v3.7344055
	c0,0.0401001,0.033905,0.0730286,0.0734253,0.0730286h3.6763916c0.0395508,0,0.0734253-0.0329285,0.0734253-0.0730286v-3.7344055
	C227.7918701,80.6707458,227.7579956,80.6378174,227.7184448,80.6378174z"/>
<path class="st0" d="M232.1177063,63.2387695v1.1990356l4.1338196,1.0669556
	c5.0543518,1.3338013,7.9457703,4.6697998,7.9457703,11.2715759v13.6048889l-28.2958374-27.1424561h-21.6659241v1.1990356
	l2.4283447,0.668335c3.5465088,0.9996643,5.8449707,3.6672974,8.3382568,6.2015686l0.6578979,0.6669312v23.8735657
	c0,6.7824097-2.7586975,9.6594543-7.4205475,11.5774841l-2.6909485,1.0959473v1.2330627h24.0293121v-1.2330627l-4.1366577-1.0959473
	c-5.0543518-1.3699646-8.0756531-4.7950745-8.0756531-11.5774841V73.5751343l37.4219055,36.1464539h1.050415V76.7763367
	c0-6.6017761,2.7558899-9.4042053,7.4177246-11.2715759l2.6909485-1.0669556v-1.1990356H232.1177063z M212.880127,108.0428467
	v0.0678406h-12.539856v-0.0678406c3.2839355-1.6440125,5.1870728-3.8358765,6.1075745-7.4671936h0.1298828
	C207.6281433,104.3424377,209.5990601,106.6728821,212.880127,108.0428467z M244.1295471,106.7872314l-38.0120544-36.813324
	c-1.7704468-1.7340393-3.6086426-3.6687317-6.6299438-5.068573v-0.0660706l15.7559814,0.0660706l28.8860168,27.8093567V106.7872314z
	 M251.0249023,64.9053345c-3.1511841,1.6004944-5.1221008,3.8006287-6.0426331,7.2685242h-0.0649414
	c-0.9176636-3.6672974-2.8885803-5.9347229-6.1047363-7.2685242v-0.0660706h12.2123108V64.9053345z"/>
<rect x="209.5725708" y="143.1643066" transform="matrix(0.7071068 -0.7071068 0.7071068 0.7071068 -40.6308556 192.007019)" width="3.7699585" height="3.7699585"/>
<path d="M252.2327576,160.1076355l-16.2618103-23.5863953l7.4367065-5.4301453
	c3.9700317-2.923584,8.270874-5.8471985,12.8007812-7.4223328l2.219696-0.7614136v-1.3426208h-23.4864502v1.3513489
	l1.5099792,0.2804565c3.6306763,0.6596985,5.3951416,2.1171265,5.3951416,4.4551392
	c0,1.5228271-1.06604,3.0499878-3.2574463,4.6687317l-20.3958435,14.9826965v-15.5973511
	c0-4.9186707,0.9698792-6.6783447,7.0436707-8.102356l2.8276672-0.6771545l0.0565491-0.0130615v-1.3484497h-33.8073883v1.3484497
	l2.884201,0.6902161c6.0709534,1.4240112,7.040863,3.1836853,7.040863,8.102356v26.4198914
	c0,4.9186707-0.9699097,6.6783447-7.040863,8.102356l-2.827652,0.6756897l-0.0565491,0.0130615v1.3499146h33.8073883v-1.3499146
	l-2.8842163-0.6887512c-6.0737915-1.4240112-7.0436707-3.1836853-7.0436707-8.102356v-8.5441284l6.9447021-5.0683289
	l15.9309692,23.7214966l0.022644,0.0319824h20.0310669v-1.3499146l-1.2385254-0.2833557
	C257.1274109,165.9896851,255.1254578,164.2823181,252.2327576,160.1076355z M252.7700195,123.3345642
	c-3.2546387,1.4865112-6.3056641,3.32901-9.3171082,5.6263123c0.0084839-0.0697327,0.0169678-0.138031,0.0254517-0.2048645
	c0.0480652-0.3894348,0.0932922-0.7250977,0.0932922-1.1043396c0-1.8221741-0.7747498-3.2738037-2.2988586-4.3171082H252.7700195z
	 M242.0221252,166.4968262l-15.5209656-23.0167847l8.0390015-5.9270935l16.2618103,23.5878296
	c1.8747253,2.7419434,3.3422852,4.3069153,5.0332031,5.3560486H242.0221252z M201.3435364,166.4968262
	c3.5911255-1.2569275,4.7532959-3.3304749,4.7532959-8.3711853v-26.4198914c0-4.6658325-1.3007202-6.9573364-4.7843933-8.3711853
	h19.8076782c-3.526062,1.4283752-4.7843628,3.6457825-4.7843628,8.3711853v26.4198914
	c0,4.7384644,1.2667847,7.0314331,4.6486511,8.3711853H201.3435364z"/>
<polygon points="231.7946777,143.9394531 231.7352905,143.9818726 235.5922241,149.2992554 235.6346436,149.3558044 
	236.9410095,148.4622803 237.0032043,148.4212646 233.1038818,142.9752197 "/>
<polygon points="242.6358948,156.6511536 241.3295288,157.5475159 241.2673035,157.588501 245.45224,163.4346924 
	245.4748535,163.4629517 247.5644836,163.5350647 242.6783142,156.7091064 "/>
<polygon points="237.7016296,150.8954773 237.6253052,150.8813171 237.0908813,154.5714111 237.0795593,154.6392822 
	240.6989441,155.3108521 240.7724609,155.3249817 241.3860779,151.5656128 "/>
<rect x="210.5957947" y="127.2930908" width="1.7248535" height="12.7668457"/>
<rect x="210.5957947" y="150.0386963" width="1.7248535" height="13.2277527"/>
<rect x="301.6576843" y="139.7755737" width="3.8286438" height="3.8258057"/>
<polygon points="319.1346741,157.0604553 319.1346741,154.6286621 308.0644226,144.7474365 308.0135498,144.7022095 
	306.7919922,145.920929 319.013092,156.9515991 "/>
<path d="M309.1087952,122.8894958l4.1990662,1.0834045c5.3894958,1.4211121,7.8976135,4.9874878,7.8976135,11.2207336v13.4594116
	l-28.2086182-27.0754395l-0.022644-0.0201111h-21.7983398v1.3305664l2.4883423,0.68396
	c3.1697693,0.8951721,5.3018188,3.0921936,7.5582886,5.4170837c0.2516785,0.2601013,0.5033264,0.5187378,0.7578125,0.7773743
	l0.6362305,0.6466064v23.6886902c0,6.8583069-2.9492493,9.4476013-7.3801575,11.2236023l-2.6976013,1.0690613l-0.0480652,0.0186768
	v1.3262634h24.2103271v-1.3334656l-4.1990356-1.0834045c-5.403656-1.4268494-8.0305481-5.0966797-8.0305481-11.2207336v-21.9443054
	l37.3504333,36.0963135l0.0226135,0.0201111h1.1536865V135.193634c0-6.8597412,2.9492493-9.4490356,7.3801575-11.2236023
	l2.6947632-1.0690613l0.0480652-0.0186768v-1.3247986h-24.0123901V122.8894958z M277.5465698,165.9892273
	c3.29422-1.6452637,5.0925903-3.8092041,5.9889526-7.2031555h0.0198059
	c1.0462341,3.6166687,2.9520569,5.8467102,6.1557922,7.2031555H277.5465698z M292.2588196,123.3737183l28.8816223,27.8197632
	v13.8948059l-37.9385681-36.763031l-0.3987122-0.3908081c-1.6654663-1.6395264-3.3847046-3.3321838-6.1048889-4.6253967
	L292.2588196,123.3737183z M327.9409485,123.3076172c-3.1782837,1.6524353-5.007782,3.8566284-5.9041443,7.1184082
	c-0.9076843-3.4916687-2.7993774-5.7605286-5.9408875-7.1184082H327.9409485z"/>
<polygon points="300.6820679,137.6647339 300.7329712,137.6124268 290.098175,127.3056335 290.0755615,127.2858582 
	287.6324768,127.2858582 299.5142517,138.83255 "/>
<path d="M395.8537598,150.2967224h-1.8577576l-0.0084839,0.0634766c-0.8539734,5.4859009-2.6806335,8.8415222-6.7439575,12.380188
	l-0.076355,0.0649414l0.6730042,0.4665222l0.0367432,0.0265808l0.0395813-0.025116
	c4.3545837-2.766571,7.0210571-7.1039124,7.9230957-12.8894958L395.8537598,150.2967224z"/>
<path d="M393.9337769,139.8755798h1.987854l-0.0169678-0.0900574c-0.8596191-4.7330017-2.448761-8.5403442-7.7166748-12.8821411
	l-0.0480652-0.039856l-0.571167,0.5226135l-0.0565796,0.0531616l0.0537415,0.0575562
	c4.3970032,4.7270813,5.4743347,7.502533,6.3565369,12.3181763L393.9337769,139.8755798z"/>
<polygon points="392.6415405,144.949585 395.3080139,147.7323914 397.9744873,144.949585 395.3080139,142.1653137 "/>
<path d="M393.7471619,126.4553833c-5.4149475-4.0145264-13.0072021-6.2263184-21.3826904-6.2263184
	s-15.9677429,2.211792-21.3826904,6.2263184c-5.8871765,4.3640747-8.9975891,10.6092529-8.9975891,18.0596313
	c0,7.5084229,3.1188965,13.8043518,9.0202026,18.2090149c5.4234314,4.0479126,13.0100403,6.2770691,21.3600769,6.2770691
	s15.9366455-2.2291565,21.3600769-6.2770691c5.898468-4.4046631,9.0202026-10.700592,9.0202026-18.2090149
	C402.744751,137.0646362,399.6343079,130.819458,393.7471619,126.4553833z M343.8391418,144.5150146
	c0-5.4837341,1.7927246-10.203125,5.327301-14.0276794c3.5147705-3.7984314,8.5536194-6.5076904,14.9837036-8.0537415
	c-6.1586304,4.1015625-9.2831726,11.5287476-9.2831726,22.0814209c0,10.5845947,3.1697998,18.1031494,9.4189148,22.3511963
	c-6.4951172-1.5794067-11.5735779-4.326355-15.102478-8.1654053
	C345.6375122,154.8399963,343.8391418,150.066925,343.8391418,144.5150146z M361.2122192,127.321228
	c2.6693115-3.4837036,6.5262146-5.3256226,11.1522522-5.3256226s8.4829407,1.8419189,11.1522522,5.3256226
	c2.9775085,3.8854675,4.4846497,9.6694336,4.4846497,17.1937866c0,7.5359802-1.5099792,13.3547363-4.4846497,17.2938538
	c-2.6834412,3.5489807-6.5403442,5.4257202-11.1522522,5.4257202s-8.468811-1.8767395-11.1522522-5.4257202
	c-2.9775085-3.9391174-4.4874878-9.7578735-4.4874878-17.2938538
	C356.7247314,136.9920959,358.2347107,131.2066956,361.2122192,127.321228z M389.8591309,144.5150146
	c0-10.5526733-3.1245422-17.9812927-9.2859802-22.0828552c6.4328918,1.546051,11.4745789,4.2567444,14.9865417,8.0551758
	c3.537384,3.8245544,5.3301086,8.5439453,5.3301086,14.0276794c0,5.5519104-1.7984009,10.3249817-5.3470764,14.185791
	c-3.5260925,3.8390503-8.6045532,6.5845337-15.0968323,8.1639404
	C386.6921692,162.6167297,389.8591309,155.0981445,389.8591309,144.5150146z M390.9410706,126.5819397
	c0.0406494,0.0259094,0.0811157,0.0516663,0.121582,0.0775757
	C391.0223694,126.6334229,390.98172,126.6078491,390.9410706,126.5819397z M393.9960022,128.8760071
	c0.1502075,0.1323547,0.2976074,0.2659607,0.4432068,0.4012146
	C394.2937622,129.1416016,394.1456909,129.0083618,393.9960022,128.8760071z M350.3017273,129.2641602
	c0.137146-0.1272583,0.2762451-0.2530823,0.4176025-0.3778076
	C350.5784912,129.0110779,350.4386902,129.1365356,350.3017273,129.2641602z M353.6703491,126.6557312
	c0.0367432-0.0235901,0.0737-0.0471497,0.1106262-0.0705261
	C353.7442322,126.6087646,353.7069397,126.6321411,353.6703491,126.6557312z M353.8513184,162.6643982
	c-0.0545959-0.0348206-0.1090393-0.0696106-0.1632996-0.1047974
	C353.7420959,162.5947876,353.796875,162.6293945,353.8513184,162.6643982z M350.7548523,160.3289795
	c-0.1491394-0.1321716-0.2961731-0.2657776-0.4407349-0.401001
	C350.4584961,160.0635681,350.6060486,160.1966553,350.7548523,160.3289795z M394.4017639,159.939209
	c-0.1375122,0.1281738-0.276947,0.255249-0.4186707,0.3808899
	C394.1244812,160.1942749,394.2644348,160.067749,394.4017639,159.939209z M391.0354309,162.561615
	c-0.0519409,0.0337219-0.104248,0.0672607-0.1567383,0.1007996
	C390.9309998,162.6288757,390.98349,162.5953369,391.0354309,162.561615z"/>
<path d="M350.6085205,139.815033c0.8822327-4.8156433,1.9595642-7.591095,6.3565674-12.3181763l0.0537415-0.0575562
	l-0.6277466-0.5757751l-0.0480652,0.039856c-5.270752,4.3462219-6.8598938,8.1506348-7.7166748,12.8821411l-0.0169678,0.0900574
	h1.987854L350.6085205,139.815033z"/>
<path d="M350.5434875,150.360199l-0.0084839-0.0634766h-1.8577576l0.0141296,0.0870972
	c0.8992004,5.7841187,3.5628357,10.1199646,7.9230957,12.8894958l0.0395813,0.025116l0.7097473-0.493103l-0.076355-0.0649414
	C353.221283,159.198761,351.3917847,155.8431396,350.5434875,150.360199z"/>
<polygon points="351.8866272,144.949585 349.2229919,142.1653137 346.5565186,144.949585 349.2229919,147.7323914 "/>
<polygon points="443.1392822,147.3670349 441.9007874,148.4273987 441.8414001,148.4753418 454.5149231,163.393219 
	454.534729,163.4179077 456.7657471,163.4179077 443.1845398,147.4207764 "/>
<polygon points="425.4155884,126.4587402 423.1845703,126.4587402 435.1229248,140.6300049 435.1681519,140.686676 
	436.4038391,139.6248474 436.4603882,139.5769043 425.4353943,126.483429 "/>
<polygon points="437.6083984,141.98526 437.2097168,145.7067566 437.2012329,145.7822876 440.8884888,146.1265259 
	440.9591675,146.1337891 441.3607178,142.4137573 441.3692017,142.3382263 437.6791077,141.9925232 "/>
<path d="M470.361084,166.7167053c-2.536377-0.5490723-4.7391357-2.1904602-7.8495483-5.8538513l-17.6360779-20.4783325
	l7.3094788-6.9098816c4.0067749-3.8434753,9.6140137-8.6936035,13.5840454-9.979126l1.6428833-0.5403748l0.0508423-0.0174255
	v-1.3421631h-20.5258789v1.3465271l1.9624023,0.4880676c2.5081177,0.6434937,3.8880005,2.1047668,3.8880005,4.1151123
	c0,1.7764893-0.9500732,3.7011414-2.604248,5.2800903l-6.5205688,6.0964355l-6.6562805-7.7117004
	c-1.5750122-1.8200684-2.2168884-3.0968628-2.2168884-4.407074c0-0.1888428,0.0249329-0.3666077,0.0614929-0.5394592
	c0.0102539-0.0462952,0.021759-0.0922241,0.0344849-0.1374512c0.0971985-0.3527832,0.2687988-0.6743469,0.5333557-0.9630432
	c0.0053101-0.0058289,0.011322-0.0116272,0.0167847-0.0176086c0.7185669-0.7702332,2.0535889-1.3220215,4.0930176-1.7153015
	l2.4911804-0.4851685v-1.3494263h-32.7554932v1.3494263l1.0462036,0.2149658
	c2.1575012,0.4285278,4.2131958,2.0888062,7.5866089,6.124054l15.6001282,18.450531l-13.8865967,13.3273315
	c-3.7550964,3.6546631-5.7514343,5.0462341-7.9174194,5.5183105l-1.6456909,0.3384399l-0.0593567,0.0116272v1.3508911h20.59375
	v-1.3479919l-1.9623718-0.4866028c-2.3950195-0.5984497-3.822998-2.2631226-3.822998-4.4535828
	c0-2.1105957,1.2187195-4.5145874,3.2631226-6.4290771l6.7156677-6.3666077l7.1850586,8.5222168
	c1.9878235,2.2878113,2.8728943,3.8987122,2.8728943,5.2190857c0,1.7082214-1.637207,2.9211121-4.7391663,3.5079651
	l-2.4939575,0.4837036v1.3508911h33.8073425v-1.3508911L470.361084,166.7167053z M416.0023499,166.5119019
	c2.0528564-1.2579346,4.2640991-3.4120789,7.3547058-6.5263977c-0.1526794,0.6071777-0.2855835,1.2695312-0.2855835,2.0074463
	c0,1.9130249,0.7719421,3.4730835,2.2366638,4.5189514H416.0023499z M444.3353882,166.5119019
	c1.515625-0.9441833,2.2225342-2.081543,2.2225342-3.5733337c0-1.7314453-1.0207825-3.7040405-3.3083496-6.3985596
	l-24.0604553-28.4340515c-0.1583557-0.1902771-0.3138733-0.3791199-0.4665833-0.5650635
	c-1.3713989-1.6530151-2.559021-3.0852356-4.1142273-4.1761169H435.01828
	c-1.3318176,0.8148804-1.9538879,1.9101257-1.9538879,3.4382324c0,1.7285461,0.7917175,3.3990173,2.6495056,5.5865784
	l25.5082092,29.6527405c1.3855591,1.6036377,2.8898926,3.2668457,4.7052002,4.469574H444.3353882z M464.7382812,165.4331665
	c0.0343018,0.0285339,0.0696411,0.0561218,0.104126,0.0844421
	C464.8077393,165.4891052,464.772583,165.4618835,464.7382812,165.4331665z M462.1495972,123.3647766
	c-2.9577637,1.5135803-5.5195923,3.6357727-7.8523865,5.7202148c0.1470337-0.4996948,0.2149048-0.9935608,0.2149048-1.5397339
	c0-1.7430725-0.7493286-3.1869202-2.1659851-4.180481H462.1495972z"/>
<polygon class="st1" points="170.4824677,145.4592285 151.5822754,128.582428 149.6690826,130.495636 170.4824677,149.2841797 "/>
<rect x="141.2307129" y="120.2570801" class="st1" width="6.3019257" height="6.3005371"/>
<polygon class="st1" points="139.0942535,116.4321289 120.9796753,98.8799438 117.1533203,98.8799438 137.1810608,118.3439026 "/>
<polygon class="st1" points="64.3957291,115.4318848 66.3089218,117.343689 86.3366547,97.8797302 82.5102692,97.8797302 "/>
<polygon class="st1" points="31.1027908,27.879715 50.0029678,44.7564697 51.9161682,42.8433075 31.1027908,24.0547638 "/>
<rect x="55.9573517" y="119.256897" class="st1" width="6.301918" height="6.3005371"/>
<polygon class="st1" points="33.0075226,144.4589844 33.0075226,148.2839661 53.8209,129.4954224 51.9077072,127.5822449 "/>
<polygon class="st1" points="149.6775513,45.7567139 168.5777283,28.8799133 168.5777283,25.0549774 147.7643585,43.8435211 "/>
<rect x="139.3259735" y="47.7815552" class="st1" width="6.3019257" height="6.3005371"/>
<polygon class="st1" points="115.2485962,75.4592285 119.0749817,75.4592285 137.1895294,57.9070129 135.2763214,55.9952698 "/>
<polygon class="st1" points="62.4909973,56.9067993 80.6055756,74.4589539 84.4319305,74.4589539 64.4041901,54.9949951 "/>
<rect x="54.0526199" y="46.7812958" class="st1" width="6.3019638" height="6.3005219"/>
<path class="st1" d="M101.6384125,75.700531c2.106369-1.7846069,4.0490875-3.8081665,6.0482025-5.8072815l1.1247559-1.1247253
	V28.8274689c0-8.7273254-2.9333954-13.4942322-8.0319672-16.6747284c-5.08255,3.1806488-8.0054779,7.9465179-8.0054779,16.6592102
	v39.94104l1.1247101,1.1247253c2.0155792,2.015564,3.9740143,4.0559387,6.1008453,5.8509216l0.8407288-0.833374
	L101.6384125,75.700531z"/>
<path d="M161.2390137,79.6810303l-7.0875702,1.8001709v2.0262146h40.8411102v-2.0262146l-4.61203-1.8001709
	c-7.9890137-3.1495361-12.7141113-7.8746033-12.7141113-19.0132141V5.0878143h-1.8001251l-64.1300201,60.980484V28.8274689
	c0-11.1385956,5.1743622-16.7637177,13.8388367-19.0146484l7.0875549-1.8001099v-2.024826h-0.0063629V5.0840912H68.917099v1.6010895
	h0.0054855v1.3119507l7.0875626,1.8001709c8.6644745,2.2508698,13.8388367,7.8760376,13.8388367,19.0146484v37.2408142
	L25.7189713,5.0722351h-1.8001709v55.5800781c0,11.1385803-4.7251053,15.8636475-12.7140732,19.0131836l-4.6120377,1.8001709
	v2.0262451h40.8411102v-2.0262451l-7.0875626-1.8001709c-8.6644669-2.2494812-13.6155777-7.8746033-13.6155777-19.0131836
	V37.6996307l48.4938889,45.7922821h14.0084076v0.0155029h2.9191132l7.8474121-7.7787781
	c-2.1268311-1.7949829-4.0852661-3.8353577-6.1008453-5.8509216l-1.1247101-1.1247253v-39.94104
	c0-8.7126923,2.9229279-13.4785614,8.0054779-16.6592102c5.0985718,3.1804962,8.0319672,7.947403,8.0319672,16.6747284v39.9410553
	l-1.1247559,1.1247253c-1.999115,1.999115-3.9418335,4.0226746-6.0482025,5.8072815l7.7383728,7.8068848h16.9839172
	L174.8545837,37.71521v22.9526062C174.8545837,71.806427,169.9035339,77.4315491,161.2390137,79.6810303z M50.0029678,44.7564697
	L31.1027908,27.879715v-3.8249512l20.8133774,18.7885437L50.0029678,44.7564697z M60.3545837,53.0818176h-6.3019638v-6.3005219
	h6.3019638V53.0818176z M80.6055756,74.4589539L62.4909973,56.9067993l1.9131927-1.9118042l20.0277405,19.4639587H80.6055756z
	 M119.0749817,75.4592285h-3.8263855l20.0277252-19.4639587l1.913208,1.9117432L119.0749817,75.4592285z M145.6278992,54.0820618
	h-6.3019257v-6.3005066h6.3019257V54.0820618z M168.5777283,28.8799133l-18.900177,16.8768005l-1.9131927-1.9131927
	l20.8133698-18.7885437V28.8799133z"/>
<path class="st1" d="M93.8986359,103.4456482l-1.1247101,1.1247864v39.94104c0,8.7273254,2.9333496,13.4942322,8.0319214,16.6746826
	c5.08255-3.1806335,8.0055237-7.9464722,8.0055237-16.6591492v-39.94104l-1.1247559-1.1247864
	c-2.017395-2.017334-3.9774475-4.0596924-6.1065063-5.8557739l-0.8459015,0.8384705l-0.7933197-0.8003845
	C97.8368378,99.4268494,95.8958435,101.4484558,93.8986359,103.4456482z"/>
<path d="M107.686615,103.4611816l1.1247559,1.1247864v39.94104c0,8.712677-2.9229736,13.4785156-8.0055237,16.6591492
	c-5.0985718-3.1804504-8.0319214-7.9473572-8.0319214-16.6746826v-39.94104l1.1247101-1.1247864
	c1.9972076-1.9971924,3.9382019-4.0187988,6.0422516-5.8021545l-7.7434845-7.8120117H75.2245483l-48.4938889,45.7922668v-22.9526672
	c0-11.1386108,4.9511108-16.7637329,13.6155777-19.0132141l7.0875626-1.8001099v-2.0262756H6.5926895v2.0262756l4.6120377,1.8001099
	c7.9889679,3.1495972,12.7140732,7.8746033,12.7140732,19.0132141v55.5800476h1.8001709l64.1300125-60.9804688v37.2408142
	c0,11.1386108-5.1743622,16.7637329-13.8388367,19.0145874l-7.0875626,1.8001709v2.0248413h0.0063705v0.9037781h63.7391968
	v-1.6011353h-0.0054932v-1.3119507l-7.0875549-1.8001709c-8.6644745-2.2508545-13.8388367-7.8759766-13.8388367-19.0145874
	v-37.2408142l64.1300201,60.9804688h1.8001251v-55.5800171c0-11.1386108,4.7250977-15.8636475,12.7141113-19.0132446
	l4.61203-1.8001404v-2.0262146h-40.8411102v2.0262146l7.0875702,1.8001404
	c8.6645203,2.2495117,13.6155701,7.8746338,13.6155701,19.0132446v22.9526367l-48.4938812-45.7922363h-14.0084076v-0.015564
	h-2.929718l-7.8424683,7.7739258C103.7091675,99.4014893,105.66922,101.4438477,107.686615,103.4611816z M33.0075226,148.2839661
	v-3.8249817l18.9001846-16.8767395l1.9131927,1.9131775L33.0075226,148.2839661z M62.2592773,125.5574036h-6.3019257v-6.3005066
	h6.3019257V125.5574036z M66.3089218,117.343689l-1.9131927-1.9118042l18.1145401-17.5521545h3.8263855L66.3089218,117.343689z
	 M151.5822754,128.582428l18.9001923,16.8768005v3.8249512l-20.813385-18.7885437L151.5822754,128.582428z M141.2307129,120.2570801
	h6.3019257v6.3005371h-6.3019257V120.2570801z M120.9796753,98.8799438l18.1145782,17.5521851l-1.9131927,1.9117737
	l-20.0277405-19.4639587H120.9796753z"/>
<polygon points="106.1594086,83.5074158 100.8260803,78.126709 95.3978577,83.5074158 92.2445526,86.6331177 95.4147797,89.8314819 
	100.7483368,95.2124023 106.1767883,89.8314819 109.3298645,86.7060242 "/>
<path d="M101.6384125,75.700531l-0.7982025-0.8052673l-0.8407288,0.833374
	c0.2682648,0.2263794,0.5289459,0.4638367,0.8033905,0.6813354
	C101.0882568,76.1834106,101.3596802,75.9366455,101.6384125,75.700531z"/>
<path d="M101.5801086,97.6054077c-0.2664032-0.2247314-0.525238-0.4605103-0.7977295-0.6764526
	c-0.2874298,0.2281799-0.5608063,0.4766235-0.8414917,0.7145386l0.7933197,0.8003845L101.5801086,97.6054077z"/>
</svg>
